<svg width="24" height="24" viewBox="0 0 24 24" fill="none" xmlns="http://www.w3.org/2000/svg">
<mask id="mask0_36_7630" style="mask-type:alpha" maskUnits="userSpaceOnUse" x="0" y="0" width="24" height="24">
<rect width="24" height="24" fill="#D9D9D9"/>
</mask>
<g mask="url(#mask0_36_7630)">
<path d="M11 20.327L8.83475 18.381C7.47442 17.1438 6.32667 16.0617 5.3915 15.1347C4.45617 14.2079 3.69975 13.3615 3.12225 12.5955C2.54458 11.8295 2.12983 11.1092 1.878 10.4347C1.626 9.76039 1.5 9.06556 1.5 8.35022C1.5 6.93106 1.9785 5.74547 2.9355 4.79347C3.89267 3.84164 5.08083 3.36572 6.5 3.36572C7.373 3.36572 8.198 3.56731 8.975 3.97047C9.752 4.37364 10.427 4.95664 11 5.71947C11.573 4.95664 12.248 4.37364 13.025 3.97047C13.802 3.56731 14.627 3.36572 15.5 3.36572C16.8142 3.36572 17.9183 3.77564 18.8125 4.59547C19.7067 5.41531 20.2384 6.39706 20.4078 7.54072C20.0936 7.42656 19.7692 7.35122 19.4345 7.31472C19.1 7.27822 18.7603 7.25997 18.4153 7.25997C16.9794 7.26631 15.6971 7.80506 14.5682 8.87622C13.4394 9.94739 12.875 11.3156 12.875 12.981C12.875 13.7105 13.0227 14.4461 13.3182 15.1877C13.6137 15.9294 14.0429 16.5617 14.6058 17.0847C14.2699 17.3874 13.8687 17.7467 13.402 18.1627C12.9353 18.5787 12.5026 18.9694 12.1038 19.3347L11 20.327ZM17.95 15.8195L15.4557 13.3502L16.525 12.2965L17.95 13.706L21.475 10.1715L22.5443 11.2252L17.95 15.8195Z" fill="#0CB7F2"/>
</g>
</svg>
