<svg width="24" height="24" viewBox="0 0 24 24" fill="none" xmlns="http://www.w3.org/2000/svg">
<mask id="mask0_36_7632" style="mask-type:alpha" maskUnits="userSpaceOnUse" x="0" y="0" width="24" height="24">
<rect width="24" height="24" fill="#D9D9D9"/>
</mask>
<g mask="url(#mask0_36_7632)">
<path d="M19.0385 11.7C18.9808 9.78199 18.2824 8.15349 16.9432 6.81449C15.6041 5.47532 13.9756 4.7769 12.0577 4.71924V3.21924C13.2244 3.2449 14.3167 3.48399 15.3345 3.93649C16.3525 4.38916 17.2417 4.99557 18.002 5.75574C18.7622 6.51607 19.3685 7.40515 19.821 8.42299C20.2737 9.44099 20.5128 10.5333 20.5385 11.7H19.0385ZM15.0385 11.7C14.9808 10.8987 14.6699 10.2143 14.1058 9.64699C13.5416 9.07982 12.8589 8.77057 12.0577 8.71924V7.21924C13.2744 7.27057 14.3109 7.72599 15.1673 8.58549C16.0238 9.44515 16.4808 10.4833 16.5385 11.7H15.0385ZM19.4402 20.5C17.5557 20.5 15.6625 20.0618 13.7605 19.1855C11.8587 18.3092 10.1097 17.073 8.5135 15.477C6.92383 13.8808 5.69083 12.1333 4.8145 10.2345C3.93817 8.33582 3.5 6.44424 3.5 4.55974C3.5 4.25974 3.6 4.00807 3.8 3.80474C4 3.60157 4.25 3.49999 4.55 3.49999H7.8115C8.064 3.49999 8.28675 3.5824 8.47975 3.74724C8.67275 3.9119 8.7955 4.1154 8.848 4.35774L9.42125 7.29999C9.46092 7.57299 9.45258 7.80757 9.39625 8.00374C9.33975 8.1999 9.23842 8.36465 9.09225 8.49799L6.78275 10.7462C7.15442 11.4269 7.57908 12.0708 8.05675 12.678C8.53425 13.285 9.05125 13.8647 9.60775 14.4172C10.1564 14.9661 10.7397 15.4757 11.3577 15.9462C11.9757 16.4167 12.6431 16.8546 13.3598 17.2597L15.6038 14.9962C15.7603 14.8334 15.9498 14.7192 16.1723 14.6537C16.3946 14.5884 16.6257 14.5724 16.8655 14.6057L19.6423 15.1712C19.8948 15.2379 20.1008 15.3667 20.2605 15.5577C20.4202 15.7487 20.5 15.9654 20.5 16.2077V19.45C20.5 19.75 20.3984 20 20.1952 20.2C19.9919 20.4 19.7402 20.5 19.4402 20.5Z" fill="#0CB7F2"/>
</g>
</svg>
