<svg width="48" height="48" viewBox="0 0 48 48" fill="none" xmlns="http://www.w3.org/2000/svg">
<mask id="mask0_59_40321" style="mask-type:alpha" maskUnits="userSpaceOnUse" x="0" y="0" width="48" height="48">
<rect width="48" height="48" fill="#D9D9D9"/>
</mask>
<g mask="url(#mask0_59_40321)">
<path d="M23.999 33.4615C24.3957 33.4615 24.722 33.3338 24.978 33.0785C25.2337 32.8235 25.3615 32.4977 25.3615 32.101C25.3615 31.7043 25.2338 31.378 24.9785 31.122C24.7235 30.8663 24.3977 30.7385 24.001 30.7385C23.6043 30.7385 23.278 30.866 23.022 31.121C22.7663 31.3763 22.6385 31.7023 22.6385 32.099C22.6385 32.4957 22.7662 32.822 23.0215 33.078C23.2765 33.3337 23.6023 33.4615 23.999 33.4615ZM22.977 26.4075H25.246V13.931H22.977V26.4075ZM24.0165 43C21.3848 43 18.92 42.5013 16.622 41.504C14.3237 40.5067 12.311 39.1448 10.584 37.4185C8.857 35.6922 7.4945 33.6792 6.4965 31.3795C5.49883 29.0802 5 26.6132 5 23.9785C5 21.3565 5.49867 18.892 6.496 16.585C7.49333 14.278 8.85517 12.2693 10.5815 10.559C12.3078 8.84867 14.3208 7.4945 16.6205 6.4965C18.9198 5.49883 21.3868 5 24.0215 5C26.6435 5 29.108 5.49867 31.415 6.496C33.722 7.49333 35.7307 8.84683 37.441 10.5565C39.1513 12.2662 40.5055 14.2767 41.5035 16.588C42.5012 18.8993 43 21.3645 43 23.9835C43 26.6152 42.5013 29.08 41.504 31.378C40.5067 33.6763 39.1532 35.6858 37.4435 37.4065C35.7338 39.1275 33.7233 40.49 31.412 41.494C29.1007 42.498 26.6355 43 24.0165 43Z" fill="#F59E0B"/>
</g>
</svg>
