<svg width="88" height="88" viewBox="0 0 88 88" fill="none" xmlns="http://www.w3.org/2000/svg">
<mask id="mask0_1324_32902" style="mask-type:alpha" maskUnits="userSpaceOnUse" x="0" y="-40" width="200" height="160">
<rect y="-40" width="200" height="160" rx="24" fill="#D9D9D9"/>
</mask>
<g mask="url(#mask0_1324_32902)">
<mask id="mask1_1324_32902" style="mask-type:alpha" maskUnits="userSpaceOnUse" x="20" y="20" width="48" height="48">
<rect x="20" y="20" width="48" height="48" fill="#D9D9D9"/>
</mask>
<g mask="url(#mask1_1324_32902)">
<path d="M41.05 52.427L54.527 38.95L52.7845 37.2385L41.05 48.9925L35.127 43.0695L33.4345 44.781L41.05 52.427ZM44.0035 63C41.3962 63 38.9395 62.5013 36.6335 61.504C34.3275 60.5067 32.311 59.1448 30.584 57.4185C28.857 55.6922 27.4945 53.6765 26.4965 51.3715C25.4988 49.0668 25 46.6108 25 44.0035C25 41.3755 25.4987 38.9053 26.496 36.593C27.4933 34.2807 28.8552 32.2693 30.5815 30.559C32.3078 28.8487 34.3235 27.4945 36.6285 26.4965C38.9332 25.4988 41.3892 25 43.9965 25C46.6245 25 49.0947 25.4987 51.407 26.496C53.7193 27.4933 55.7307 28.8468 57.441 30.5565C59.1513 32.2662 60.5055 34.2767 61.5035 36.588C62.5012 38.8993 63 41.3688 63 43.9965C63 46.6038 62.5013 49.0605 61.504 51.3665C60.5067 53.6725 59.1532 55.689 57.4435 57.416C55.7338 59.143 53.7233 60.5055 51.412 61.5035C49.1007 62.5012 46.6312 63 44.0035 63Z" fill="#22C55E"/>
</g>
</g>
</svg>
