<svg width="106" height="108" viewBox="0 0 106 108" fill="none" xmlns="http://www.w3.org/2000/svg">
<path opacity="0.5" d="M91.0496 78.6047C90.0231 79.1358 88.9999 79.3616 87.9133 79.3064C84.8192 79.1456 82.4527 76.4819 82.6687 73.3976C82.8458 70.8833 84.9313 68.6988 87.4683 68.3691C90.8548 67.9305 93.7848 70.4919 93.7962 73.9043C93.8011 75.3612 93.8011 76.8197 93.7962 78.2766C93.7865 81.4909 91.3793 83.9223 88.1537 83.997C86.9274 84.0263 85.7548 83.8427 84.66 83.2645C83.9844 82.9088 83.6806 82.1114 83.9924 81.473C84.2945 80.851 85.0986 80.4466 85.8571 80.8282C86.9551 81.3821 88.1066 81.4243 89.2533 81.0053C90.1937 80.661 90.7816 79.9723 91.0025 78.988C91.0269 78.8808 91.0318 78.7688 91.0513 78.6047H91.0496ZM88.2057 76.6297C89.7666 76.6541 91.0415 75.4132 91.0594 73.8556C91.0773 72.3272 89.8363 71.0766 88.269 71.0392C86.7422 71.0035 85.4461 72.2541 85.4153 73.7922C85.3844 75.3352 86.6318 76.6053 88.2057 76.6297Z" fill="#9DA4AE"/>
<path d="M46.1949 69.5556C46.8267 68.9482 47.5528 68.5551 48.3909 68.3651C51.2511 67.717 53.9391 69.8415 53.9911 72.8203C54.0203 74.5029 54.0025 76.1872 53.9944 77.8699C53.9911 78.6495 53.5023 79.2098 52.7844 79.3008C52.0941 79.3885 51.4379 78.9532 51.2625 78.2759C51.2203 78.1151 51.2186 77.9414 51.2186 77.7724C51.2154 76.1547 51.2202 74.537 51.2154 72.9193C51.2121 72.039 50.7362 71.339 49.9842 71.0791C48.7937 70.6698 47.5787 71.5453 47.569 72.8398C47.556 74.5322 47.569 76.2262 47.5642 77.9186C47.5625 78.591 47.1419 79.1124 46.5003 79.2699C45.7126 79.4632 44.9362 78.9289 44.8371 78.1233C44.8192 77.9738 44.8111 77.8228 44.8111 77.6734C44.8095 76.0833 44.8143 74.4948 44.8078 72.9047C44.8046 71.9383 44.1842 71.1603 43.3201 71.0125C42.1864 70.8193 41.1811 71.6476 41.1746 72.8024C41.1648 74.5046 41.1778 76.2067 41.1681 77.9089C41.1632 78.8688 40.2634 79.5233 39.3538 79.2456C38.8162 79.0815 38.4102 78.6024 38.4069 78.0404C38.3955 76.1694 38.3598 74.2967 38.4199 72.4272C38.4865 70.3986 40.2471 68.5779 42.2757 68.3066C43.7716 68.1069 45.0661 68.5178 46.1966 69.5524L46.1949 69.5556Z" fill="#9DA4AE"/>
<path d="M21.413 69.1548V68.8446C21.413 67.4153 21.4114 65.986 21.4146 64.5567C21.4146 64.3602 21.4243 64.1588 21.4698 63.9704C21.6209 63.363 22.1731 62.9634 22.7611 63.0121C23.3588 63.0625 23.8656 63.5822 23.9241 64.2075C23.9306 64.2823 23.9321 64.3586 23.9321 64.4333C23.9321 67.5826 23.9419 70.7335 23.9289 73.8829C23.9191 76.3451 22.2024 78.541 19.8213 79.1729C16.7759 79.9833 13.7338 78.1821 12.9672 75.1156C12.1875 71.9907 14.3948 68.7813 17.601 68.3671C18.8906 68.2014 20.0893 68.4386 21.2068 69.098C21.2474 69.1223 21.2896 69.1418 21.3318 69.163C21.3383 69.1662 21.3496 69.163 21.4081 69.1565L21.413 69.1548ZM15.5577 73.852C15.561 75.3852 16.8247 76.6391 18.3709 76.6472C19.9139 76.6554 21.2116 75.3706 21.2068 73.839C21.2019 72.3236 19.9155 71.047 18.3855 71.0405C16.8441 71.0324 15.5545 72.3155 15.5594 73.8536L15.5577 73.852Z" fill="#9DA4AE"/>
<path d="M8.98113 78.1561C8.40291 78.6288 7.8019 79.0137 7.09862 79.2005C5.5605 79.6098 4.13121 79.2882 2.85134 78.4128C1.09395 77.2125 0.28348 75.4957 0.428035 73.3778C0.6002 70.8521 2.66128 68.7082 5.17717 68.3704C8.10561 67.9773 10.8229 69.8906 11.4093 72.7752C11.4872 73.1585 11.5132 73.5597 11.5165 73.9527C11.5295 75.2505 11.5246 76.5482 11.5165 77.8475C11.5165 78.0522 11.4937 78.2633 11.4369 78.4582C11.2826 78.978 10.8343 79.3207 10.3194 79.3467C9.81755 79.371 9.32868 79.0559 9.11753 78.5638C9.06556 78.4436 9.03144 78.3169 8.97946 78.1594L8.98113 78.1561ZM8.78619 73.8504C8.78944 72.3042 7.51604 71.0357 5.96167 71.0373C4.4333 71.0389 3.14207 72.3155 3.13557 73.8325C3.12908 75.3577 4.43493 76.6521 5.97143 76.6456C7.51767 76.6391 8.78294 75.382 8.78619 73.8504Z" fill="#9DA4AE"/>
<path d="M34.0414 78.2127C33.5655 78.4855 33.1107 78.812 32.6056 79.0264C31.1243 79.6549 29.6658 79.434 28.3177 78.669C26.289 77.5191 25.334 75.7179 25.4688 73.3953C25.615 70.8729 27.7021 68.7014 30.2278 68.3684C33.1513 67.9835 35.8329 69.8675 36.4452 72.7554C36.5264 73.1387 36.554 73.5382 36.5573 73.9313C36.5703 75.2388 36.567 76.5462 36.5573 77.8537C36.5573 78.0762 36.5362 78.3134 36.4582 78.5164C36.2666 79.0118 35.8978 79.3106 35.3505 79.3398C34.8599 79.3675 34.3743 79.0507 34.1648 78.5765C34.108 78.4482 34.0722 78.3117 34.0397 78.211L34.0414 78.2127ZM33.827 73.8371C33.827 72.3038 32.5682 71.0516 31.0171 71.037C29.4855 71.024 28.1731 72.3201 28.1763 73.8452C28.1796 75.3606 29.4644 76.6356 30.9976 76.6453C32.5471 76.6534 33.8286 75.3817 33.827 73.8371Z" fill="#9DA4AE"/>
<path d="M55.3228 73.8487C55.3147 70.8326 57.8273 68.32 60.8629 68.3102C63.8856 68.3005 66.4323 70.8147 66.4421 73.8146C66.4518 76.8584 63.9489 79.3661 60.897 79.371C57.8273 79.3759 55.3309 76.9039 55.3228 73.8487ZM58.0644 73.8374C58.0628 75.3739 59.3556 76.6553 60.8938 76.6456C62.4254 76.6359 63.7085 75.3592 63.7118 73.8455C63.715 72.3236 62.4043 71.0259 60.8727 71.0373C59.3345 71.0486 58.0645 72.3139 58.0628 73.8374H58.0644Z" fill="#9DA4AE"/>
<path opacity="0.5" d="M71.8407 79.3664C70.8077 79.3404 69.5246 78.9684 68.3129 78.348C67.6421 78.0053 67.3985 77.2176 67.7266 76.5646C68.058 75.9085 68.823 75.6437 69.51 75.9718C70.4602 76.4249 71.4444 76.7092 72.5066 76.6052C72.7356 76.5825 72.9728 76.5224 73.1823 76.4249C73.6241 76.2203 73.6809 75.8207 73.2798 75.5528C72.9419 75.327 72.557 75.1467 72.1672 75.0314C71.1537 74.7325 70.1499 74.4223 69.2777 73.797C68.1505 72.9881 67.699 71.8268 68.0839 70.6298C68.3892 69.6797 69.0795 69.0609 69.9647 68.6792C71.9154 67.8362 73.793 68.1286 75.5861 69.1551C75.8135 69.285 75.9938 69.5806 76.088 69.8388C76.2813 70.3732 76.1319 70.8686 75.7015 71.2421C75.2629 71.6222 74.7529 71.692 74.2299 71.4257C73.5202 71.0651 72.7827 70.8345 71.9787 70.9108C71.7481 70.9319 71.5126 70.9904 71.3015 71.083C70.858 71.2795 70.7915 71.6596 71.1878 71.9259C71.5468 72.1679 71.9609 72.3515 72.3767 72.4765C73.2619 72.7413 74.1406 73.0158 74.9332 73.503C75.63 73.9318 76.2147 74.4662 76.4437 75.2896C76.801 76.5679 76.14 77.9923 74.8634 78.7167C74.1081 79.1455 73.1336 79.3826 71.8407 79.3696V79.3664Z" fill="#9DA4AE"/>
<path opacity="0.5" d="M95.7156 75.3492C95.7156 74.5307 95.6945 73.7121 95.7189 72.8951C95.8293 69.2439 99.9694 66.9879 103.103 68.8736C104.723 69.8481 105.555 71.3001 105.578 73.1891C105.596 74.7499 105.588 76.3124 105.578 77.8732C105.575 78.6041 105.146 79.1352 104.475 79.283C103.871 79.4162 103.205 79.1044 102.952 78.5294C102.852 78.3053 102.805 78.0405 102.802 77.7937C102.789 76.2507 102.802 74.7077 102.792 73.1663C102.786 72.0911 102.097 71.2352 101.077 71.0029C99.8818 70.73 98.6262 71.6087 98.4833 72.8253C98.4622 73.0023 98.454 73.1809 98.454 73.3596C98.4524 74.836 98.4492 76.3124 98.454 77.7904C98.4557 78.3816 98.2657 78.8608 97.7216 79.1499C96.8315 79.6241 95.753 79.0069 95.7059 78.0016C95.7059 77.9739 95.7026 77.9447 95.7026 77.9171C95.7026 77.0612 95.7026 76.2052 95.7026 75.3492H95.7108H95.7156Z" fill="#9DA4AE"/>
<path opacity="0.5" d="M81.0844 73.7984C81.0844 75.1903 81.0909 76.5823 81.0812 77.9726C81.0763 78.6206 80.62 79.142 79.9686 79.2833C79.3612 79.4149 78.7277 79.1128 78.4792 78.5329C78.385 78.3153 78.3379 78.0619 78.3379 77.8232C78.3282 75.1335 78.3281 72.4455 78.333 69.7558C78.3346 68.9128 78.8576 68.3054 79.5983 68.2567C80.386 68.2031 81.078 68.8284 81.0828 69.6242C81.0926 71.0162 81.086 72.4081 81.0844 73.7984Z" fill="#9DA4AE"/>
<path opacity="0.5" d="M79.7089 67.0712C78.8887 67.0712 78.1934 66.363 78.1951 65.5314C78.1951 64.6868 78.8773 64.0144 79.7251 64.0209C80.5535 64.0274 81.2291 64.7063 81.2307 65.533C81.2307 66.3581 80.5259 67.0712 79.7089 67.0712Z" fill="#9DA4AE"/>
<path d="M30.9324 52.2143C32.6264 52.2143 37.0427 56.8448 42.6868 52.6512C48.261 48.5095 49.6952 54.3826 57.1146 54.3826" stroke="#9DA4AE" stroke-width="3.2484" stroke-linecap="round" stroke-linejoin="round"/>
<path d="M57.115 54.3827L56.2054 49.2242L55.4421 44.8974C55.3462 44.3533 55.3949 43.7929 55.585 43.2732L61.8447 26.0746C62.4391 24.439 64.2484 23.5961 65.884 24.1905L69.8049 25.6182C71.4404 26.2126 72.2834 28.022 71.689 29.6576L65.4293 46.8561C65.2408 47.3759 64.9177 47.8372 64.4938 48.1929L61.9389 50.3368" stroke="#9DA4AE" stroke-width="3.2484" stroke-linecap="round" stroke-linejoin="round"/>
</svg>
