<svg width="20" height="20" viewBox="0 0 20 20" fill="none" xmlns="http://www.w3.org/2000/svg">
<mask id="mask0_76_70072" style="mask-type:alpha" maskUnits="userSpaceOnUse" x="0" y="0" width="20" height="20">
<rect width="20" height="20" fill="#D9D9D9"/>
</mask>
<g mask="url(#mask0_76_70072)">
<path d="M5.01296 16.1663C4.67518 16.1663 4.39414 16.0542 4.16983 15.8299C3.94553 15.6056 3.83337 15.3245 3.83337 14.9868V5.01259C3.83337 4.67481 3.94553 4.39377 4.16983 4.16947C4.39414 3.94516 4.67518 3.83301 5.01296 3.83301H8.99212C8.84671 3.45273 8.88532 3.10766 9.10796 2.7978C9.3306 2.48794 9.62817 2.33301 10.0007 2.33301C10.3732 2.33301 10.6705 2.48794 10.8927 2.7978C11.115 3.10766 11.1534 3.45273 11.008 3.83301H14.9871C15.3249 3.83301 15.6059 3.94516 15.8302 4.16947C16.0546 4.39377 16.1667 4.67481 16.1667 5.01259V14.9868C16.1667 15.3245 16.0546 15.6056 15.8302 15.8299C15.6059 16.0542 15.3249 16.1663 14.9871 16.1663H5.01296ZM10 4.15988C10.1445 4.15988 10.2639 4.11266 10.3584 4.01822C10.4528 3.92377 10.5 3.80433 10.5 3.65988C10.5 3.51544 10.4528 3.39599 10.3584 3.30155C10.2639 3.2071 10.1445 3.15988 10 3.15988C9.8556 3.15988 9.73615 3.2071 9.64171 3.30155C9.54726 3.39599 9.50004 3.51544 9.50004 3.65988C9.50004 3.80433 9.54726 3.92377 9.64171 4.01822C9.73615 4.11266 9.8556 4.15988 10 4.15988ZM4.50004 14.7159C5.27782 14.077 6.13893 13.6013 7.08337 13.2888C8.02782 12.9763 9.00004 12.8201 10 12.8201C11 12.8201 11.9723 12.9729 12.9167 13.2784C13.8612 13.584 14.7223 14.0631 15.5 14.7159V5.01259C15.5 4.88426 15.4466 4.76669 15.3398 4.65988C15.233 4.55308 15.1155 4.49967 14.9871 4.49967H5.01296C4.88462 4.49967 4.76705 4.55308 4.66025 4.65988C4.55344 4.76669 4.50004 4.88426 4.50004 5.01259V14.7159ZM10.005 11.5638C10.7282 11.5638 11.3387 11.3132 11.8365 10.812C12.3344 10.3107 12.5834 9.69849 12.5834 8.9753C12.5834 8.25224 12.3327 7.64176 11.8315 7.14384C11.3302 6.64606 10.7181 6.39717 9.99504 6.39717C9.27185 6.39717 8.66136 6.6478 8.16358 7.14905C7.66567 7.65016 7.41671 8.26231 7.41671 8.98551C7.41671 9.70856 7.66733 10.3191 8.16858 10.817C8.66983 11.3149 9.28199 11.5638 10.005 11.5638ZM4.59129 15.4997H15.4088V15.5638C14.6203 14.8747 13.7666 14.3562 12.8477 14.0084C11.929 13.6606 10.9798 13.4868 10 13.4868C9.04171 13.4868 8.10393 13.658 7.18671 14.0005C6.26948 14.3429 5.40435 14.8533 4.59129 15.5318V15.4997ZM10 10.8972C9.47657 10.8972 9.02622 10.7086 8.649 10.3313C8.27192 9.95426 8.08337 9.50398 8.08337 8.98051C8.08337 8.4569 8.27192 8.00655 8.649 7.62947C9.02622 7.25238 9.47657 7.06384 10 7.06384C10.5235 7.06384 10.9739 7.25238 11.3511 7.62947C11.7282 8.00655 11.9167 8.4569 11.9167 8.98051C11.9167 9.50398 11.7282 9.95426 11.3511 10.3313C10.9739 10.7086 10.5235 10.8972 10 10.8972Z" fill="#384250"/>
</g>
</svg>
