<svg width="20" height="20" viewBox="0 0 20 20" fill="none" xmlns="http://www.w3.org/2000/svg">
<mask id="mask0_55_23283" style="mask-type:alpha" maskUnits="userSpaceOnUse" x="0" y="0" width="20" height="20">
<rect width="20" height="20" fill="#D9D9D9"/>
</mask>
<g mask="url(#mask0_55_23283)">
<path d="M10.0002 1.99316L16.7954 5.84796C16.9073 5.92448 16.9972 6.00712 17.0652 6.09587C17.1329 6.18448 17.1668 6.29823 17.1668 6.43712V14.9867C17.1668 15.3245 17.0547 15.6055 16.8304 15.8298C16.6061 16.0541 16.325 16.1663 15.9872 16.1663H4.01308C3.6753 16.1663 3.39426 16.0541 3.16995 15.8298C2.94565 15.6055 2.8335 15.3245 2.8335 14.9867V6.43712C2.8335 6.29823 2.86739 6.18448 2.93516 6.09587C3.00308 6.00712 3.09301 5.92448 3.20495 5.84796L10.0002 1.99316ZM10.0002 10.2288L16.5002 6.49962L10.0002 2.77046L3.50016 6.49962L10.0002 10.2288ZM10.0002 11.0061L3.50016 7.32983V14.9867C3.50016 15.1363 3.54822 15.2592 3.64433 15.3555C3.74058 15.4516 3.8635 15.4996 4.01308 15.4996H15.9872C16.1368 15.4996 16.2597 15.4516 16.356 15.3555C16.4521 15.2592 16.5002 15.1363 16.5002 14.9867V7.32983L10.0002 11.0061Z" fill="#384250"/>
</g>
</svg>
