<svg width="20" height="20" viewBox="0 0 20 20" fill="none" xmlns="http://www.w3.org/2000/svg">
<mask id="mask0_55_23262" style="mask-type:alpha" maskUnits="userSpaceOnUse" x="0" y="0" width="20" height="20">
<rect width="20" height="20" fill="#D9D9D9"/>
</mask>
<g mask="url(#mask0_55_23262)">
<path d="M7.50245 11.4997C7.22315 11.4997 6.98627 11.4032 6.79183 11.2103C6.59739 11.0175 6.50016 10.7814 6.50016 10.502C6.50016 10.2227 6.59662 9.98579 6.78954 9.79134C6.98232 9.5969 7.21843 9.49967 7.49787 9.49967C7.77718 9.49967 8.01405 9.59613 8.2085 9.78905C8.40294 9.98183 8.50016 10.2179 8.50016 10.4974C8.50016 10.7767 8.4037 11.0136 8.21079 11.208C8.01801 11.4025 7.7819 11.4997 7.50245 11.4997ZM12.5025 11.4997C12.2231 11.4997 11.9863 11.4032 11.7918 11.2103C11.5974 11.0175 11.5002 10.7814 11.5002 10.502C11.5002 10.2227 11.5966 9.98579 11.7895 9.79134C11.9823 9.5969 12.2184 9.49967 12.4979 9.49967C12.7772 9.49967 13.0141 9.59613 13.2085 9.78905C13.4029 9.98183 13.5002 10.2179 13.5002 10.4974C13.5002 10.7767 13.4037 11.0136 13.2108 11.208C13.018 11.4025 12.7819 11.4997 12.5025 11.4997ZM10.0097 16.4997C11.8217 16.4997 13.3564 15.8677 14.6139 14.6038C15.8714 13.34 16.5002 11.8069 16.5002 10.0047C16.5002 9.6819 16.4654 9.31565 16.396 8.90592C16.3266 8.4962 16.2363 8.13856 16.1252 7.83301C15.8335 7.90245 15.5696 7.94759 15.3335 7.96842C15.0974 7.98926 14.8196 7.99967 14.5002 7.99967C13.3063 7.99967 12.1779 7.76704 11.1152 7.30176C10.0524 6.83648 9.10433 6.16634 8.271 5.29134C7.75711 6.37467 7.1078 7.27051 6.32308 7.97884C5.53836 8.68717 4.61127 9.2219 3.54183 9.58301C3.52794 9.63856 3.51752 9.70801 3.51058 9.79134C3.50364 9.87467 3.50016 9.94412 3.50016 9.99967C3.50016 11.8052 4.13211 13.34 5.396 14.6038C6.65988 15.8677 8.1978 16.4997 10.0097 16.4997ZM10.0029 17.1663C9.0162 17.1663 8.0885 16.98 7.21975 16.6072C6.351 16.2344 5.58933 15.7211 4.93475 15.0672C4.28016 14.4133 3.76634 13.6513 3.39329 12.7813C3.02009 11.9115 2.8335 10.982 2.8335 9.99301C2.8335 9.00384 3.01988 8.07356 3.39266 7.20217C3.76544 6.33092 4.27877 5.57148 4.93266 4.92384C5.58655 4.2762 6.3485 3.76585 7.2185 3.3928C8.08836 3.0196 9.0178 2.83301 10.0068 2.83301C10.996 2.83301 11.9263 3.02106 12.7977 3.39717C13.6692 3.77329 14.4272 4.2837 15.0718 4.92842C15.7164 5.57315 16.2268 6.33134 16.6029 7.20301C16.9788 8.07454 17.1668 9.00586 17.1668 9.99697C17.1668 10.9836 16.9804 11.9113 16.6077 12.7801C16.2349 13.6488 15.725 14.4105 15.0781 15.0651C14.4311 15.7197 13.6715 16.2335 12.7991 16.6066C11.9268 16.9797 10.9947 17.1663 10.0029 17.1663ZM8.06912 3.76405C8.80412 5.02363 9.78488 5.93336 11.0114 6.49322C12.2379 7.05308 13.4009 7.33301 14.5002 7.33301C14.731 7.33301 14.9436 7.3269 15.1381 7.31467C15.3325 7.30231 15.5536 7.26641 15.8014 7.20697C15.1743 5.98113 14.3463 5.05683 13.3175 4.43405C12.2886 3.81113 11.1862 3.49967 10.0104 3.49967C9.66593 3.49967 9.33523 3.52079 9.01829 3.56301C8.70134 3.60523 8.38495 3.67224 8.06912 3.76405ZM3.65558 8.8378C4.59683 8.45641 5.50766 7.85572 6.38808 7.03572C7.26836 6.21572 7.80252 5.13426 7.99058 3.79134C6.70961 4.32662 5.71065 5.01516 4.9937 5.85697C4.2769 6.69891 3.83086 7.69252 3.65558 8.8378Z" fill="#384250"/>
</g>
</svg>
