<svg width="20" height="20" viewBox="0 0 20 20" fill="none" xmlns="http://www.w3.org/2000/svg">
<mask id="mask0_55_23252" style="mask-type:alpha" maskUnits="userSpaceOnUse" x="0" y="0" width="20" height="20">
<rect width="20" height="20" fill="#D9D9D9"/>
</mask>
<g mask="url(#mask0_55_23252)">
<path d="M5.2262 14.3826C5.9762 13.8869 6.73822 13.5186 7.51225 13.2778C8.28627 13.0368 9.11558 12.9163 10.0002 12.9163C10.8847 12.9163 11.7141 13.0368 12.4881 13.2778C13.2621 13.5186 14.0241 13.8869 14.7741 14.3826C15.3244 13.8131 15.7496 13.1545 16.0497 12.4068C16.35 11.6588 16.5002 10.8565 16.5002 9.99967C16.5002 8.1987 15.8666 6.66509 14.5995 5.39884C13.3325 4.13273 11.7977 3.49967 9.99537 3.49967C8.19301 3.49967 6.65988 4.13273 5.396 5.39884C4.13211 6.66509 3.50016 8.1987 3.50016 9.99967C3.50016 10.8565 3.6503 11.6588 3.95058 12.4068C4.25072 13.1545 4.67593 13.8131 5.2262 14.3826ZM10.0006 11.083C9.28447 11.083 8.67482 10.8316 8.17162 10.3286C7.66843 9.82572 7.41683 9.2162 7.41683 8.50009C7.41683 7.78398 7.66829 7.17433 8.1712 6.67113C8.67412 6.16794 9.28364 5.91634 9.99975 5.91634C10.7159 5.91634 11.3255 6.1678 11.8287 6.67072C12.3319 7.17363 12.5835 7.78315 12.5835 8.49926C12.5835 9.21537 12.332 9.82502 11.8291 10.3282C11.3262 10.8314 10.7167 11.083 10.0006 11.083ZM10.006 17.1663C9.01169 17.1663 8.07919 16.982 7.2085 16.6134C6.3378 16.2448 5.57523 15.7334 4.92079 15.0791C4.26648 14.4246 3.75502 13.6623 3.38641 12.7922C3.0178 11.922 2.8335 10.988 2.8335 9.99009C2.8335 8.99217 3.0178 8.06134 3.38641 7.19759C3.75502 6.33384 4.26648 5.57474 4.92079 4.9203C5.57523 4.26599 6.33752 3.75454 7.20766 3.38592C8.0778 3.01731 9.01183 2.83301 10.0097 2.83301C11.0077 2.83301 11.9385 3.01731 12.8022 3.38592C13.666 3.75454 14.4251 4.26599 15.0795 4.9203C15.7338 5.57474 16.2453 6.33537 16.6139 7.20217C16.9825 8.06912 17.1668 8.99967 17.1668 9.99384C17.1668 10.9881 16.9825 11.9206 16.6139 12.7913C16.2453 13.662 15.7338 14.4246 15.0795 15.0791C14.4251 15.7334 13.6645 16.2448 12.7977 16.6134C11.9307 16.982 11.0002 17.1663 10.006 17.1663ZM10.0002 16.4997C10.7545 16.4997 11.5104 16.3584 12.2679 16.0757C13.0252 15.7932 13.6956 15.3977 14.2789 14.889C13.6817 14.482 13.0204 14.1625 12.295 13.9307C11.5695 13.6989 10.8046 13.583 10.0002 13.583C9.19572 13.583 8.42461 13.6928 7.68683 13.9124C6.94919 14.132 6.29405 14.4575 5.72141 14.889C6.30475 15.3977 6.97509 15.7932 7.73245 16.0757C8.48995 16.3584 9.24586 16.4997 10.0002 16.4997ZM10.0002 10.4163C10.5236 10.4163 10.974 10.2278 11.3512 9.85072C11.7283 9.47349 11.9168 9.02315 11.9168 8.49967C11.9168 7.9762 11.7283 7.52586 11.3512 7.14863C10.974 6.77155 10.5236 6.58301 10.0002 6.58301C9.47669 6.58301 9.02634 6.77155 8.64912 7.14863C8.27204 7.52586 8.0835 7.9762 8.0835 8.49967C8.0835 9.02315 8.27204 9.47349 8.64912 9.85072C9.02634 10.2278 9.47669 10.4163 10.0002 10.4163Z" fill="#384250"/>
</g>
</svg>
