<svg width="20" height="20" viewBox="0 0 20 20" fill="none" xmlns="http://www.w3.org/2000/svg">
<mask id="mask0_55_23273" style="mask-type:alpha" maskUnits="userSpaceOnUse" x="0" y="0" width="20" height="20">
<rect width="20" height="20" fill="#D9D9D9"/>
</mask>
<g mask="url(#mask0_55_23273)">
<path d="M15.5641 9.53009C15.4678 8.06967 14.8975 6.81731 13.8532 5.77301C12.8089 4.72856 11.5566 4.15829 10.0962 4.06217V3.39551C10.9295 3.43829 11.7092 3.62565 12.4353 3.95759C13.1616 4.28967 13.799 4.73002 14.3476 5.27863C14.8961 5.82724 15.3364 6.4646 15.6684 7.19072C16.0005 7.91697 16.188 8.69676 16.2307 9.53009H15.5641ZM12.5641 9.53009C12.4678 8.88912 12.1927 8.33891 11.7387 7.87947C11.2846 7.42002 10.7371 7.14759 10.0962 7.06217V6.39551C10.9295 6.48092 11.6362 6.81752 12.2162 7.4053C12.7963 7.99294 13.1345 8.7012 13.2307 9.53009H12.5641ZM15.0464 16.1455C13.6971 16.0205 12.3784 15.634 11.0905 14.9861C9.80262 14.3381 8.62018 13.4756 7.54324 12.3986C6.47699 11.3218 5.62331 10.1421 4.9822 8.85947C4.34123 7.57683 3.95824 6.26086 3.83324 4.91155C3.80546 4.61988 3.89081 4.3637 4.08928 4.14301C4.28762 3.92245 4.5356 3.81217 4.83324 3.81217H6.35241C6.6206 3.81217 6.84949 3.89044 7.03907 4.04697C7.2288 4.20349 7.36748 4.41426 7.45512 4.67926L7.82678 5.97884C7.86525 6.17009 7.85484 6.35974 7.79553 6.5478C7.73623 6.73586 7.64032 6.88544 7.50782 6.99655L5.67949 8.70155C6.0213 9.33613 6.3888 9.92322 6.78199 10.4628C7.17519 11.0024 7.59907 11.5034 8.05366 11.9657C8.52421 12.436 9.03838 12.8722 9.59616 13.2745C10.1538 13.6767 10.7659 14.0488 11.4326 14.3907L13.3189 12.5349C13.4407 12.4024 13.5689 12.3199 13.7034 12.2874C13.838 12.2547 14.0009 12.2523 14.1922 12.2801L15.2995 12.5349C15.5677 12.6043 15.7793 12.7393 15.9343 12.9397C16.0891 13.14 16.1666 13.3795 16.1666 13.6584V15.1455C16.1666 15.4431 16.0528 15.6911 15.8253 15.8895C15.5977 16.0879 15.338 16.1733 15.0464 16.1455ZM5.39262 8.04447L7.07532 6.49009C7.12866 6.44731 7.16338 6.38856 7.17949 6.31384C7.19546 6.23898 7.19275 6.16954 7.17137 6.10551L6.79782 4.7353C6.77643 4.64974 6.73907 4.58565 6.68574 4.54301C6.63227 4.50023 6.56282 4.47884 6.47741 4.47884H4.74991C4.68574 4.47884 4.63234 4.50023 4.5897 4.54301C4.54692 4.58565 4.52553 4.63905 4.52553 4.70322C4.5415 5.23099 4.63074 5.7769 4.79324 6.34092C4.9556 6.90509 5.15539 7.47294 5.39262 8.04447ZM12.1426 14.6984C12.6514 14.939 13.1963 15.1147 13.7774 15.2257C14.3584 15.3368 14.8578 15.4111 15.2755 15.4484C15.3397 15.4484 15.3931 15.427 15.4357 15.3843C15.4785 15.3415 15.4999 15.2881 15.4999 15.2241V13.5093C15.4999 13.4238 15.4785 13.3544 15.4357 13.3009C15.3931 13.2476 15.329 13.2102 15.2434 13.1888L14.0976 12.9355C14.0336 12.9141 13.9775 12.9115 13.9295 12.9276C13.8813 12.9436 13.8305 12.9783 13.7772 13.0318L12.1426 14.6984Z" fill="#384250"/>
</g>
</svg>
