<svg width="20" height="20" viewBox="0 0 20 20" fill="none" xmlns="http://www.w3.org/2000/svg">
<mask id="mask0_76_70063" style="mask-type:alpha" maskUnits="userSpaceOnUse" x="0" y="0" width="20" height="20">
<rect width="20" height="20" fill="#D9D9D9"/>
</mask>
<g mask="url(#mask0_76_70063)">
<path d="M10 13.4868C10.6838 13.4868 11.3256 13.3196 11.9255 12.9853C12.5255 12.6509 13.0215 12.1904 13.4136 11.6038H6.5865C6.97858 12.1904 7.47462 12.6509 8.07462 12.9853C8.67449 13.3196 9.31629 13.4868 10 13.4868ZM6.79171 8.70967L7.50004 7.96926L8.24046 8.70967L8.59629 8.35384L7.50004 7.28967L6.43587 8.35384L6.79171 8.70967ZM11.7596 8.70967L12.5 7.96926L13.2084 8.70967L13.5642 8.35384L12.5 7.28967L11.4038 8.35384L11.7596 8.70967ZM10.0027 17.1663C9.02122 17.1663 8.09476 16.98 7.22337 16.6072C6.35212 16.2344 5.58921 15.7211 4.93462 15.0672C4.28004 14.4133 3.76622 13.6511 3.39317 12.7805C3.01997 11.9101 2.83337 10.984 2.83337 10.0024C2.83337 9.00697 3.01976 8.07703 3.39254 7.21259C3.76532 6.34829 4.27865 5.58884 4.93254 4.93426C5.58643 4.27967 6.34865 3.76585 7.21921 3.3928C8.08962 3.0196 9.01567 2.83301 9.99733 2.83301C10.9927 2.83301 11.9227 3.0194 12.7871 3.39218C13.6514 3.76495 14.4109 4.27829 15.0655 4.93217C15.72 5.58606 16.2339 6.34481 16.6069 7.20843C16.9801 8.0719 17.1667 9.00141 17.1667 9.99697C17.1667 10.9785 16.9803 11.905 16.6075 12.7763C16.2348 13.6476 15.7214 14.4105 15.0675 15.0651C14.4137 15.7197 13.6549 16.2335 12.7913 16.6066C11.9278 16.9797 10.9983 17.1663 10.0027 17.1663ZM10 16.4997C11.8056 16.4997 13.3403 15.8677 14.6042 14.6038C15.8681 13.34 16.5 11.8052 16.5 9.99967C16.5 8.19412 15.8681 6.6594 14.6042 5.39551C13.3403 4.13162 11.8056 3.49967 10 3.49967C8.19449 3.49967 6.65976 4.13162 5.39587 5.39551C4.13199 6.6594 3.50004 8.19412 3.50004 9.99967C3.50004 11.8052 4.13199 13.34 5.39587 14.6038C6.65976 15.8677 8.19449 16.4997 10 16.4997Z" fill="#384250"/>
</g>
</svg>
