<svg width="221" height="130" viewBox="0 0 221 130" fill="none" xmlns="http://www.w3.org/2000/svg">
<path opacity="0.5" d="M190.404 118.67C188.248 119.785 186.1 120.259 183.818 120.143C177.32 119.806 172.351 114.212 172.804 107.735C173.176 102.455 177.556 97.8675 182.883 97.1751C189.995 96.2541 196.148 101.633 196.172 108.799C196.182 111.859 196.182 114.922 196.172 117.981C196.151 124.731 191.096 129.837 184.323 129.994C181.747 130.055 179.285 129.67 176.986 128.456C175.567 127.709 174.929 126.034 175.584 124.693C176.218 123.387 177.907 122.538 179.5 123.339C181.805 124.502 184.224 124.591 186.632 123.711C188.607 122.988 189.841 121.542 190.305 119.475C190.356 119.25 190.367 119.014 190.408 118.67H190.404ZM184.432 114.522C187.71 114.574 190.387 111.968 190.425 108.697C190.462 105.487 187.856 102.861 184.565 102.782C181.359 102.707 178.637 105.334 178.572 108.564C178.507 111.804 181.127 114.471 184.432 114.522Z" fill="white"/>
<path d="M96.2094 99.6667C97.5362 98.3911 99.0608 97.5656 100.821 97.1666C106.827 95.8057 112.472 100.267 112.581 106.522C112.643 110.056 112.605 113.593 112.588 117.127C112.581 118.764 111.555 119.941 110.047 120.132C108.598 120.316 107.22 119.402 106.851 117.979C106.763 117.642 106.759 117.277 106.759 116.922C106.752 113.525 106.763 110.128 106.752 106.73C106.745 104.882 105.746 103.412 104.167 102.866C101.667 102.007 99.1154 103.845 99.0949 106.563C99.0676 110.117 99.095 113.675 99.0848 117.229C99.0813 118.641 98.198 119.736 96.8507 120.067C95.1965 120.473 93.566 119.35 93.358 117.659C93.3204 117.345 93.3033 117.028 93.3033 116.714C93.2999 113.375 93.3101 110.039 93.2965 106.7C93.2897 104.67 91.9869 103.037 90.1723 102.726C87.7915 102.32 85.6802 104.06 85.6666 106.485C85.6461 110.059 85.6734 113.634 85.6529 117.208C85.6427 119.224 83.7531 120.599 81.8431 120.016C80.7141 119.671 79.8614 118.665 79.8545 117.485C79.8307 113.556 79.7556 109.623 79.8818 105.697C80.0217 101.437 83.7189 97.6134 87.9791 97.0438C91.1204 96.6243 93.8389 97.4872 96.2129 99.6599L96.2094 99.6667Z" fill="white"/>
<path d="M44.1675 98.8248V98.1734C44.1675 95.1719 44.164 92.1704 44.1708 89.1689C44.1708 88.7561 44.1912 88.3332 44.2867 87.9375C44.6039 86.6619 45.7637 85.8228 46.9984 85.9252C48.2536 86.0309 49.3178 87.1224 49.4406 88.4355C49.4542 88.5924 49.4576 88.7527 49.4576 88.9096C49.4576 95.5232 49.478 102.14 49.4508 108.754C49.4303 113.924 45.825 118.536 40.8247 119.863C34.4294 121.565 28.041 117.782 26.4311 111.343C24.7939 104.78 29.4292 98.0404 36.1622 97.1706C38.8704 96.8227 41.3876 97.3207 43.7343 98.7055C43.8195 98.7566 43.9082 98.7976 43.9969 98.8419C44.0106 98.8487 44.0343 98.8419 44.1571 98.8283L44.1675 98.8248ZM31.8713 108.689C31.8781 111.909 34.5319 114.542 37.779 114.559C41.0193 114.576 43.7445 111.878 43.7343 108.662C43.724 105.479 41.0226 102.798 37.8096 102.785C34.5727 102.768 31.8646 105.462 31.8748 108.692L31.8713 108.689Z" fill="white"/>
<path d="M18.0603 117.728C16.846 118.72 15.5839 119.529 14.107 119.921C10.877 120.78 7.87545 120.105 5.18772 118.267C1.4972 115.746 -0.20478 112.141 0.0987843 107.693C0.460332 102.389 4.78859 97.8871 10.072 97.1776C16.2217 96.3522 21.9281 100.37 23.1594 106.428C23.3231 107.233 23.3777 108.075 23.3845 108.901C23.4118 111.626 23.4016 114.351 23.3845 117.08C23.3845 117.509 23.3367 117.953 23.2173 118.362C22.8933 119.454 21.952 120.173 20.8707 120.228C19.8168 120.279 18.7901 119.617 18.3467 118.584C18.2376 118.331 18.1659 118.065 18.0568 117.735L18.0603 117.728ZM17.6509 108.686C17.6577 105.439 14.9836 102.775 11.7194 102.778C8.50984 102.782 5.79826 105.462 5.78461 108.648C5.77097 111.851 8.51327 114.569 11.7399 114.556C14.987 114.542 17.6441 111.902 17.6509 108.686Z" fill="white"/>
<path d="M70.6871 117.846C69.6877 118.419 68.7326 119.105 67.6718 119.555C64.5612 120.875 61.4983 120.411 58.6673 118.805C54.4071 116.39 52.4016 112.607 52.6847 107.73C52.9916 102.433 57.3747 97.8726 62.6785 97.1734C68.818 96.365 74.4492 100.322 75.7351 106.386C75.9056 107.191 75.9636 108.03 75.9704 108.855C75.9977 111.601 75.9909 114.347 75.9704 117.092C75.9704 117.56 75.9261 118.058 75.7624 118.484C75.3599 119.524 74.5856 120.152 73.4361 120.213C72.406 120.271 71.3863 119.606 70.9463 118.61C70.8269 118.341 70.7518 118.054 70.6836 117.843L70.6871 117.846ZM70.2368 108.658C70.2368 105.438 67.5935 102.808 64.3361 102.777C61.1197 102.75 58.3637 105.472 58.3705 108.675C58.3773 111.857 61.0753 114.534 64.2951 114.555C67.5491 114.572 70.2402 111.901 70.2368 108.658Z" fill="white"/>
<path d="M115.378 108.682C115.361 102.349 120.637 97.072 127.012 97.0516C133.36 97.0311 138.708 102.311 138.728 108.611C138.749 115.003 133.493 120.269 127.084 120.279C120.637 120.289 115.395 115.098 115.378 108.682ZM121.135 108.659C121.132 111.885 123.847 114.576 127.077 114.556C130.293 114.535 132.988 111.854 132.995 108.676C133.002 105.48 130.249 102.754 127.033 102.778C123.803 102.802 121.135 105.459 121.132 108.659H121.135Z" fill="white"/>
<path opacity="0.5" d="M150.065 120.269C147.896 120.215 145.202 119.433 142.657 118.131C141.248 117.411 140.737 115.757 141.426 114.385C142.122 113.008 143.728 112.452 145.171 113.141C147.166 114.092 149.233 114.689 151.464 114.471C151.945 114.423 152.443 114.297 152.883 114.092C153.811 113.662 153.93 112.823 153.087 112.261C152.378 111.786 151.57 111.408 150.751 111.166C148.623 110.538 146.515 109.887 144.683 108.573C142.316 106.875 141.368 104.436 142.176 101.922C142.817 99.9271 144.267 98.6276 146.126 97.826C150.222 96.0558 154.165 96.6697 157.931 98.8254C158.408 99.0982 158.787 99.719 158.985 100.261C159.391 101.383 159.077 102.424 158.173 103.208C157.252 104.006 156.181 104.153 155.083 103.594C153.592 102.836 152.044 102.352 150.355 102.512C149.871 102.557 149.376 102.68 148.933 102.874C148.002 103.287 147.862 104.085 148.694 104.644C149.448 105.152 150.318 105.538 151.191 105.8C153.05 106.356 154.895 106.933 156.56 107.956C158.023 108.857 159.251 109.979 159.732 111.708C160.482 114.392 159.094 117.384 156.413 118.905C154.827 119.805 152.781 120.303 150.065 120.276V120.269Z" fill="white"/>
<path opacity="0.5" d="M200.203 111.833C200.203 110.114 200.159 108.395 200.21 106.68C200.442 99.0122 209.136 94.2746 215.715 98.2345C219.119 100.281 220.866 103.33 220.914 107.297C220.951 110.575 220.934 113.856 220.914 117.134C220.907 118.669 220.006 119.784 218.598 120.094C217.329 120.374 215.93 119.719 215.398 118.512C215.19 118.041 215.091 117.485 215.084 116.967C215.057 113.726 215.084 110.486 215.064 107.249C215.05 104.991 213.604 103.194 211.462 102.706C208.952 102.133 206.315 103.978 206.015 106.533C205.971 106.905 205.954 107.28 205.954 107.655C205.95 110.756 205.943 113.856 205.954 116.96C205.957 118.201 205.558 119.208 204.415 119.815C202.546 120.811 200.281 119.515 200.182 117.403C200.182 117.345 200.176 117.284 200.176 117.226C200.176 115.428 200.176 113.631 200.176 111.833H200.193H200.203Z" fill="white"/>
<path opacity="0.5" d="M169.478 108.576C169.478 111.499 169.491 114.422 169.471 117.342C169.461 118.703 168.502 119.798 167.135 120.095C165.859 120.371 164.528 119.736 164.007 118.519C163.809 118.062 163.71 117.53 163.71 117.028C163.69 111.38 163.689 105.735 163.7 100.087C163.703 98.3166 164.801 97.0409 166.357 96.9386C168.011 96.8261 169.464 98.1392 169.474 99.8105C169.495 102.734 169.481 105.657 169.478 108.576Z" fill="white"/>
<path opacity="0.5" d="M166.589 94.4493C164.867 94.4493 163.407 92.9622 163.41 91.2159C163.41 89.4422 164.843 88.0302 166.623 88.0438C168.363 88.0574 169.781 89.4832 169.785 91.2193C169.785 92.952 168.305 94.4493 166.589 94.4493Z" fill="white"/>
<path d="M64.1578 63.2502C67.7153 63.2502 76.9894 72.9744 88.8421 64.1677C100.548 55.4701 103.56 67.8036 119.141 67.8036" stroke="white" stroke-width="6.82164" stroke-linecap="round" stroke-linejoin="round"/>
<path d="M119.141 67.8036L117.231 56.9709L115.628 47.8845C115.427 46.7419 115.529 45.5651 115.928 44.4737L129.074 8.35663C130.322 4.92195 134.122 3.15174 137.556 4.40009L145.79 7.39819C149.225 8.64655 150.995 12.4462 149.747 15.8809L136.601 51.9979C136.206 53.0894 135.527 54.058 134.637 54.805L129.272 59.3073" stroke="white" stroke-width="6.82164" stroke-linecap="round" stroke-linejoin="round"/>
</svg>
