<svg width="182" height="36" viewBox="0 0 182 36" fill="none" xmlns="http://www.w3.org/2000/svg">
<path opacity="0.5" d="M156.254 26.7474C154.494 27.6583 152.739 28.0455 150.876 27.9507C145.569 27.675 141.511 23.1069 141.882 17.8174C142.185 13.5056 145.762 9.75925 150.113 9.19382C155.92 8.44176 160.945 12.8343 160.965 18.6865C160.973 21.185 160.973 23.6863 160.965 26.1848C160.948 31.6971 156.82 35.8669 151.288 35.995C149.185 36.0451 147.174 35.7304 145.297 34.7388C144.138 34.1288 143.617 32.7611 144.152 31.6665C144.67 30.5997 146.049 29.9061 147.349 30.5607C149.232 31.5105 151.207 31.5829 153.174 30.8643C154.786 30.2738 155.795 29.0928 156.174 27.4048C156.215 27.221 156.224 27.0288 156.257 26.7474H156.254ZM151.377 23.3604C154.054 23.4022 156.24 21.2741 156.271 18.6029C156.302 15.9819 154.174 13.8371 151.486 13.773C148.867 13.7117 146.645 15.8565 146.592 18.4943C146.539 21.1404 148.678 23.3186 151.377 23.3604Z" fill="#3E4784"/>
<path d="M79.33 11.229C80.4136 10.1872 81.6587 9.51314 83.0959 9.18725C88.0011 8.07587 92.611 11.7192 92.7001 16.8276C92.7502 19.7133 92.7196 22.6018 92.7057 25.4875C92.7001 26.8245 91.8618 27.7854 90.6306 27.9414C89.4468 28.0918 88.3214 27.3453 88.0206 26.1838C87.9482 25.9081 87.9454 25.61 87.9454 25.3203C87.9398 22.5461 87.9482 19.7718 87.9398 16.9975C87.9343 15.4878 87.1181 14.2873 85.8285 13.8417C83.7867 13.1397 81.7032 14.6411 81.6865 16.8611C81.6642 19.7634 81.6866 22.6686 81.6782 25.571C81.6754 26.7242 80.954 27.6183 79.8538 27.8885C78.5029 28.2199 77.1714 27.3035 77.0015 25.922C76.9708 25.6657 76.9568 25.4067 76.9568 25.1504C76.9541 22.4235 76.9624 19.6994 76.9513 16.9725C76.9457 15.3151 75.8818 13.9809 74.3999 13.7275C72.4557 13.396 70.7315 14.8166 70.7204 16.797C70.7037 19.7161 70.7259 22.6352 70.7092 25.5543C70.7009 27.2005 69.1578 28.323 67.5979 27.8467C66.6759 27.5654 65.9796 26.7437 65.974 25.7799C65.9545 22.5711 65.8932 19.3596 65.9963 16.1536C66.1105 12.6746 69.1298 9.55214 72.6088 9.08698C75.1742 8.74437 77.3942 9.44908 79.3329 11.2234L79.33 11.229Z" fill="#3E4784"/>
<path d="M36.8304 10.5413V10.0093C36.8304 7.55812 36.8275 5.10696 36.8331 2.6558C36.8331 2.31877 36.8498 1.97338 36.9277 1.65027C37.1868 0.608526 38.1339 -0.0766824 39.1422 0.00687982C40.1673 0.0932274 41.0364 0.984562 41.1366 2.05694C41.1478 2.18507 41.1505 2.31598 41.1505 2.44411C41.1505 7.84502 41.1672 13.2487 41.1449 18.6496C41.1282 22.8723 38.184 26.6382 34.1006 27.7217C28.8779 29.1116 23.6609 26.0226 22.3461 20.7637C21.0091 15.4046 24.7945 9.90065 30.2929 9.19037C32.5045 8.90626 34.5602 9.31293 36.4766 10.4438C36.5462 10.4856 36.6187 10.519 36.6911 10.5552C36.7022 10.5608 36.7217 10.5552 36.8219 10.5441L36.8304 10.5413ZM26.7888 18.5967C26.7944 21.2261 28.9615 23.3764 31.6133 23.3904C34.2594 23.4043 36.485 21.201 36.4766 18.5744C36.4683 15.9756 34.2622 13.7863 31.6383 13.7751C28.9949 13.7612 26.7833 15.9617 26.7917 18.5995L26.7888 18.5967Z" fill="#3E4784"/>
<path d="M15.5101 25.9778C14.5185 26.7884 13.4878 27.4485 12.2817 27.7688C9.64389 28.4708 7.19274 27.9192 4.99783 26.4179C1.98399 24.3595 0.594088 21.4153 0.841991 17.7831C1.13725 13.4518 4.67188 9.77509 8.98651 9.19572C14.0086 8.52165 18.6687 11.8029 19.6742 16.7498C19.8079 17.4071 19.8525 18.0951 19.8581 18.7692C19.8804 20.9947 19.872 23.2203 19.8581 25.4486C19.8581 25.7995 19.819 26.1616 19.7216 26.4959C19.4569 27.3872 18.6882 27.9749 17.8052 28.0195C16.9445 28.0613 16.1061 27.5209 15.744 26.6769C15.6549 26.4708 15.5964 26.2536 15.5072 25.9834L15.5101 25.9778ZM15.1758 18.5937C15.1814 15.942 12.9975 13.7666 10.3319 13.7694C7.71081 13.7722 5.49642 15.9615 5.48528 18.5631C5.47414 21.1785 7.71361 23.3985 10.3486 23.3874C13.0003 23.3762 15.1702 21.2203 15.1758 18.5937Z" fill="#3E4784"/>
<path d="M58.4872 26.075C57.671 26.5429 56.891 27.1028 56.0248 27.4704C53.4845 28.5484 50.9832 28.1696 48.6713 26.8577C45.1923 24.8856 43.5544 21.7966 43.7856 17.8134C44.0363 13.4877 47.6157 9.76362 51.947 9.19261C56.9608 8.53247 61.5595 11.7635 62.6096 16.716C62.7488 17.3733 62.7962 18.0586 62.8017 18.7326C62.824 20.9749 62.8184 23.2171 62.8017 25.4594C62.8017 25.841 62.7656 26.2477 62.6319 26.5958C62.3032 27.4454 61.6708 27.9579 60.7321 28.008C59.8909 28.0554 59.0581 27.5122 58.6988 26.6989C58.6013 26.4788 58.54 26.2449 58.4843 26.0722L58.4872 26.075ZM58.1194 18.5711C58.1194 15.9416 55.9608 13.7941 53.3007 13.769C50.674 13.7467 48.4233 15.9695 48.4289 18.585C48.4345 21.1838 50.6378 23.3703 53.2672 23.387C55.9245 23.401 58.1222 21.22 58.1194 18.5711Z" fill="#3E4784"/>
<path d="M94.9834 18.5906C94.9695 13.4181 99.2785 9.10905 104.484 9.09233C109.668 9.07562 114.036 13.3874 114.052 18.5321C114.069 23.7519 109.777 28.0526 104.543 28.061C99.2785 28.0693 94.9974 23.8299 94.9834 18.5906ZM99.6852 18.5711C99.6824 21.2061 101.9 23.4038 104.537 23.387C107.164 23.3703 109.365 21.181 109.37 18.585C109.376 15.9751 107.128 13.7495 104.501 13.769C101.863 13.7885 99.6853 15.9584 99.6825 18.5711H99.6852Z" fill="#3E4784"/>
<path opacity="0.5" d="M123.311 28.0536C121.539 28.009 119.339 27.3711 117.261 26.3071C116.11 25.7194 115.693 24.3685 116.255 23.2487C116.823 22.1234 118.135 21.6694 119.314 22.232C120.943 23.0092 122.631 23.4966 124.453 23.3184C124.845 23.2794 125.252 23.1763 125.611 23.0092C126.369 22.6582 126.467 21.973 125.779 21.5134C125.199 21.1262 124.539 20.8171 123.871 20.6193C122.132 20.1068 120.411 19.5748 118.915 18.5024C116.982 17.1153 116.208 15.1237 116.868 13.0708C117.392 11.4414 118.575 10.3801 120.093 9.72557C123.439 8.27995 126.659 8.78132 129.734 10.5417C130.124 10.7645 130.433 11.2715 130.595 11.7143C130.926 12.6307 130.67 13.4803 129.932 14.1209C129.18 14.7727 128.305 14.8925 127.408 14.4357C126.191 13.8173 124.926 13.4218 123.547 13.5527C123.152 13.5889 122.748 13.6892 122.386 13.848C121.625 14.185 121.511 14.8368 122.191 15.2936C122.807 15.7086 123.517 16.0234 124.23 16.2379C125.748 16.6919 127.255 17.1626 128.614 17.9982C129.809 18.7336 130.812 19.65 131.205 21.0622C131.817 23.2543 130.684 25.6971 128.494 26.9394C127.199 27.6747 125.528 28.0814 123.311 28.0591V28.0536Z" fill="#3E4784"/>
<path opacity="0.5" d="M164.256 21.1646C164.256 19.7608 164.219 18.3569 164.261 16.9559C164.451 10.6943 171.551 6.82533 176.924 10.0592C179.704 11.7304 181.13 14.2206 181.169 17.46C181.199 20.1368 181.185 22.8164 181.169 25.4931C181.163 26.7466 180.428 27.6574 179.277 27.9109C178.241 28.1393 177.099 27.6045 176.665 26.6184C176.495 26.2341 176.414 25.78 176.408 25.3566C176.386 22.7105 176.408 20.0644 176.392 17.421C176.38 15.5771 175.2 14.1092 173.45 13.7109C171.4 13.2429 169.247 14.7498 169.002 16.8361C168.966 17.1397 168.952 17.4461 168.952 17.7525C168.949 20.2844 168.943 22.8164 168.952 25.3511C168.955 26.365 168.629 27.1867 167.696 27.6825C166.169 28.4958 164.32 27.4373 164.239 25.7132C164.239 25.6658 164.233 25.6157 164.233 25.5683C164.233 24.1004 164.233 22.6325 164.233 21.1646H164.247H164.256Z" fill="#3E4784"/>
<path opacity="0.5" d="M139.164 18.5049C139.164 20.892 139.175 23.2791 139.158 25.6634C139.15 26.7748 138.367 27.6689 137.251 27.9112C136.209 28.1368 135.122 27.6188 134.696 26.6244C134.535 26.2511 134.454 25.8166 134.454 25.4072C134.437 20.7945 134.437 16.1847 134.446 11.572C134.448 10.1264 135.345 9.08467 136.615 9.0011C137.966 8.90918 139.153 9.98156 139.161 11.3464C139.178 13.7335 139.167 16.1206 139.164 18.5049Z" fill="#3E4784"/>
<path opacity="0.5" d="M136.805 6.96868C135.398 6.96868 134.206 5.75425 134.209 4.32812C134.209 2.87971 135.379 1.72655 136.833 1.73769C138.254 1.74883 139.412 2.91314 139.415 4.33091C139.415 5.7459 138.206 6.96868 136.805 6.96868Z" fill="#3E4784"/>
</svg>
