<svg width="122" height="24" viewBox="0 0 122 24" fill="none" xmlns="http://www.w3.org/2000/svg">
<path opacity="0.5" d="M104.502 17.8326C103.328 18.4398 102.159 18.6979 100.916 18.6348C97.3787 18.451 94.6732 15.4056 94.9201 11.8793C95.1225 9.00473 97.5069 6.50715 100.407 6.13019C104.279 5.62881 107.629 8.5572 107.642 12.4586C107.648 14.1243 107.648 15.7918 107.642 17.4575C107.631 21.1324 104.879 23.9122 101.191 23.9976C99.7891 24.0311 98.4484 23.8212 97.1968 23.1602C96.4243 22.7535 96.077 21.8417 96.4335 21.112C96.7789 20.4008 97.6982 19.9384 98.5654 20.3748C99.8207 21.008 101.137 21.0563 102.448 20.5772C103.523 20.1835 104.196 19.3962 104.448 18.2708C104.476 18.1483 104.482 18.0202 104.504 17.8326H104.502ZM101.251 15.5746C103.035 15.6024 104.493 14.1837 104.513 12.4029C104.534 10.6555 103.115 9.2257 101.323 9.18299C99.5774 9.14214 98.0955 10.572 98.0603 12.3305C98.025 14.0946 99.4511 15.5467 101.251 15.5746Z" fill="white"/>
<path d="M53.2198 7.48695C53.9422 6.79245 54.7722 6.34307 55.7304 6.12581C59.0005 5.38489 62.0737 7.81377 62.1332 11.2194C62.1666 13.1432 62.1462 15.0688 62.1369 16.9926C62.1332 17.8839 61.5743 18.5246 60.7535 18.6286C59.9643 18.7289 59.2141 18.2312 59.0135 17.4568C58.9652 17.273 58.9634 17.0743 58.9634 16.8812C58.9597 15.0317 58.9652 13.1822 58.9597 11.3327C58.956 10.3262 58.4119 9.52587 57.5521 9.22876C56.1909 8.76081 54.8019 9.7617 54.7908 11.2417C54.7759 13.1766 54.7908 15.1134 54.7852 17.0483C54.7834 17.8171 54.3025 18.4132 53.569 18.5933C52.6684 18.8143 51.7807 18.2033 51.6674 17.2823C51.647 17.1115 51.6377 16.9388 51.6377 16.7679C51.6358 14.95 51.6414 13.1339 51.634 11.316C51.6302 10.2111 50.921 9.3216 49.9331 9.15262C48.6369 8.93165 47.4875 9.87868 47.48 11.199C47.4689 13.145 47.4837 15.0911 47.4726 17.0372C47.467 18.1346 46.4383 18.883 45.3984 18.5654C44.7837 18.3779 44.3195 17.8301 44.3158 17.1876C44.3028 15.0484 44.2619 12.9073 44.3306 10.77C44.4068 8.4507 46.4197 6.36907 48.739 6.05896C50.4493 5.83056 51.9293 6.30037 53.2217 7.48324L53.2198 7.48695Z" fill="white"/>
<path d="M24.8867 7.02753V6.67285C24.8867 5.03875 24.8848 3.40464 24.8885 1.77054C24.8885 1.54585 24.8997 1.31558 24.9516 1.10018C25.1243 0.405684 25.7557 -0.0511216 26.428 0.00458655C27.1113 0.0621516 27.6907 0.656375 27.7576 1.3713C27.765 1.45672 27.7668 1.54399 27.7668 1.62941C27.7668 5.23001 27.778 8.83247 27.7631 12.4331C27.752 15.2482 25.7891 17.7588 23.0669 18.4811C19.5851 19.4077 16.1071 17.3484 15.2306 13.8425C14.3392 10.2697 16.8628 6.60043 20.5284 6.12691C22.0028 5.9375 23.3733 6.20862 24.6509 6.96253C24.6973 6.99039 24.7456 7.01267 24.7939 7.03681C24.8013 7.04052 24.8143 7.03682 24.8811 7.02939L24.8867 7.02753ZM18.1924 12.3978C18.1961 14.1507 19.6408 15.5843 21.4087 15.5936C23.1728 15.6029 24.6565 14.134 24.6509 12.3829C24.6453 10.6504 23.1746 9.19086 21.4253 9.18343C19.6631 9.17415 18.1887 10.6411 18.1943 12.3996L18.1924 12.3978Z" fill="white"/>
<path d="M10.6732 17.3207C10.0122 17.8611 9.32504 18.3012 8.52098 18.5147C6.76245 18.9827 5.12835 18.615 3.66507 17.6141C1.65585 16.2418 0.729245 14.279 0.894513 11.8576C1.09135 8.97004 3.44777 6.51888 6.32419 6.13264C9.67228 5.68326 12.779 7.87074 13.4493 11.1687C13.5385 11.6069 13.5682 12.0656 13.5719 12.5149C13.5868 13.9986 13.5812 15.4823 13.5719 16.9679C13.5719 17.2018 13.5459 17.4433 13.4809 17.6661C13.3045 18.2603 12.792 18.6521 12.2033 18.6818C11.6295 18.7097 11.0706 18.3494 10.8292 17.7868C10.7698 17.6494 10.7308 17.5045 10.6713 17.3244L10.6732 17.3207ZM10.4504 12.398C10.4541 10.6301 8.99822 9.17988 7.22111 9.18173C5.47372 9.18359 3.99747 10.6431 3.99004 12.3775C3.98261 14.1212 5.47559 15.6012 7.23227 15.5937C9.00008 15.5863 10.4467 14.149 10.4504 12.398Z" fill="white"/>
<path d="M39.3248 17.3821C38.7807 17.6941 38.2607 18.0673 37.6832 18.3125C35.9896 19.0311 34.3221 18.7785 32.7808 17.9039C30.4615 16.5892 29.3696 14.5299 29.5237 11.8744C29.6909 8.99062 32.0771 6.5079 34.9647 6.12722C38.3072 5.68713 41.373 7.84117 42.073 11.1428C42.1659 11.581 42.1974 12.0379 42.2012 12.4872C42.216 13.9821 42.2123 15.4769 42.2012 16.9717C42.2012 17.2261 42.177 17.4973 42.0879 17.7294C41.8688 18.2957 41.4472 18.6374 40.8214 18.6708C40.2606 18.7024 39.7054 18.3403 39.4659 17.7981C39.4009 17.6514 39.36 17.4954 39.3229 17.3803L39.3248 17.3821ZM39.0796 12.3795C39.0796 10.6266 37.6405 9.19489 35.8671 9.17817C34.116 9.16332 32.6156 10.6452 32.6193 12.3888C32.623 14.1213 34.0918 15.579 35.8448 15.5902C37.6163 15.5995 39.0815 14.1455 39.0796 12.3795Z" fill="white"/>
<path d="M63.6556 12.3947C63.6463 8.94636 66.519 6.07367 69.9896 6.06253C73.4454 6.05139 76.3572 8.92593 76.3683 12.3557C76.3794 15.8356 73.5178 18.7027 70.0286 18.7083C66.519 18.7139 63.6649 15.8876 63.6556 12.3947ZM66.7901 12.3817C66.7883 14.1384 68.2664 15.6035 70.0249 15.5923C71.776 15.5812 73.243 14.1216 73.2467 12.391C73.2505 10.651 71.7519 9.16733 70.0008 9.18033C68.2423 9.19333 66.7902 10.6399 66.7883 12.3817H66.7901Z" fill="white"/>
<path opacity="0.5" d="M82.5405 18.7033C81.3595 18.6736 79.8925 18.2484 78.5072 17.539C77.7403 17.1472 77.4618 16.2466 77.8369 15.5001C78.2157 14.7499 79.0903 14.4472 79.8758 14.8223C80.9621 15.3404 82.0874 15.6654 83.3018 15.5465C83.5637 15.5206 83.8348 15.4518 84.0743 15.3404C84.5794 15.1065 84.6444 14.6496 84.1858 14.3433C83.7995 14.0851 83.3594 13.879 82.9137 13.7472C81.755 13.4055 80.6074 13.0508 79.6102 12.3359C78.3215 11.4111 77.8052 10.0834 78.2453 8.71487C78.5945 7.62856 79.3837 6.92107 80.3957 6.48469C82.6259 5.52094 84.7725 5.85519 86.8226 7.02877C87.0826 7.17733 87.2888 7.51529 87.3965 7.81054C87.6174 8.42148 87.4466 8.98784 86.9545 9.41494C86.4531 9.84946 85.8701 9.92931 85.2721 9.62478C84.4606 9.21253 83.6175 8.94885 82.6983 9.03612C82.4346 9.06026 82.1654 9.12711 81.924 9.23296C81.417 9.45765 81.3409 9.89217 81.794 10.1967C82.2044 10.4734 82.6779 10.6832 83.1533 10.8262C84.1653 11.1289 85.17 11.4427 86.0762 11.9998C86.8728 12.49 87.5413 13.101 87.8031 14.0424C88.2116 15.5038 87.4559 17.1324 85.9963 17.9606C85.1328 18.4508 84.0187 18.7219 82.5405 18.7071V18.7033Z" fill="white"/>
<path opacity="0.5" d="M109.837 14.1115C109.837 13.1756 109.813 12.2397 109.84 11.3057C109.967 7.13126 114.7 4.55197 118.282 6.70788C120.135 7.82204 121.086 9.48214 121.112 11.6418C121.133 13.4263 121.123 15.2127 121.112 16.9972C121.108 17.8328 120.618 18.44 119.851 18.609C119.161 18.7613 118.399 18.4047 118.11 17.7474C117.996 17.4911 117.942 17.1884 117.939 16.9062C117.924 15.1421 117.939 13.378 117.927 11.6158C117.92 10.3865 117.133 9.40787 115.967 9.14233C114.6 8.83036 113.164 9.83496 113.001 11.2258C112.977 11.4282 112.968 11.6325 112.968 11.8367C112.966 13.5247 112.962 15.2127 112.968 16.9025C112.969 17.5784 112.752 18.1262 112.13 18.4567C111.113 18.999 109.879 18.2933 109.826 17.1439C109.826 17.1123 109.822 17.0789 109.822 17.0473C109.822 16.0687 109.822 15.0901 109.822 14.1115H109.831H109.837Z" fill="white"/>
<path opacity="0.5" d="M93.109 12.3356C93.109 13.927 93.1165 15.5184 93.1053 17.108C93.0997 17.8489 92.578 18.445 91.8334 18.6065C91.1389 18.7569 90.4146 18.4115 90.1305 17.7486C90.0228 17.4998 89.969 17.2101 89.969 16.9371C89.9579 13.862 89.9578 10.7888 89.9634 7.71371C89.9652 6.74996 90.5632 6.05547 91.4099 5.99976C92.3106 5.93848 93.1017 6.6534 93.1072 7.5633C93.1184 9.15469 93.1109 10.7461 93.109 12.3356Z" fill="white"/>
<path opacity="0.5" d="M91.5364 4.64363C90.5986 4.64363 89.8038 3.83401 89.8057 2.88326C89.8057 1.91765 90.5857 1.14888 91.555 1.1563C92.502 1.16373 93.2744 1.93994 93.2763 2.88512C93.2763 3.82844 92.4704 4.64363 91.5364 4.64363Z" fill="white"/>
</svg>
